<?xml version="1.0" encoding="utf-8"?>
<!-- Generator: Adobe Illustrator 19.0.0, SVG Export Plug-In . SVG Version: 6.00 Build 0)  -->
<svg version="1.1" id="Layer_1" xmlns="http://www.w3.org/2000/svg" xmlns:xlink="http://www.w3.org/1999/xlink" x="0px" y="0px"
	 viewBox="-12 14 24 24" style="enable-background:new -12 14 24 24;" xml:space="preserve">
<style type="text/css">
	.st0{fill:#8000DB;}
</style>
<g id="info">
</g>
<g id="icons">
	<path id="email" class="st0" d="M-5.4,27.2h-5.3c-0.7,0-1.3,0.6-1.3,1.3v3.3c0,0.7,0.6,1.3,1.3,1.3h5.3c0.7,0,1.3-0.6,1.3-1.3v-3.3
		C-4,27.8-4.6,27.2-5.4,27.2z M-4.8,29.1l-2.6,1.8C-7.6,31-7.8,31.1-8,31.1c-0.2,0-0.4-0.1-0.6-0.2l-2.6-1.8
		c-0.1-0.1-0.2-0.3-0.1-0.5c0.1-0.1,0.3-0.2,0.5-0.1l2.6,1.8c0.1,0.1,0.3,0.1,0.4,0l2.6-1.8c0.2-0.1,0.4-0.1,0.5,0.1
		C-4.7,28.9-4.7,29.1-4.8,29.1z"/>
</g>
</svg>
