<?xml version="1.0" encoding="utf-8"?>
<!-- Generator: Adobe Illustrator 19.0.0, SVG Export Plug-In . SVG Version: 6.00 Build 0)  -->
<svg version="1.1" id="Layer_1" xmlns="http://www.w3.org/2000/svg" xmlns:xlink="http://www.w3.org/1999/xlink" x="0px" y="0px"
	 viewBox="-12 14 24 24" style="enable-background:new -12 14 24 24;" xml:space="preserve">
<style type="text/css">
	.st0{display:none;}
	.st1{display:inline;fill:#8000DB;}
	.st2{fill:none;}
	.st3{fill:#8000DB;}
</style>
<g id="info">
</g>
<g id="icons" class="st0">
	<path id="email" class="st1" d="M-5.4,27.2h-5.3c-0.7,0-1.3,0.6-1.3,1.3v3.3c0,0.7,0.6,1.3,1.3,1.3h5.3c0.7,0,1.3-0.6,1.3-1.3v-3.3
		C-4,27.8-4.6,27.2-5.4,27.2z M-4.8,29.1l-2.6,1.8C-7.6,31-7.8,31.1-8,31.1c-0.2,0-0.4-0.1-0.6-0.2l-2.6-1.8
		c-0.1-0.1-0.2-0.3-0.1-0.5c0.1-0.1,0.3-0.2,0.5-0.1l2.6,1.8c0.1,0.1,0.3,0.1,0.4,0l2.6-1.8c0.2-0.1,0.4-0.1,0.5,0.1
		C-4.7,28.9-4.7,29.1-4.8,29.1z"/>
</g>
<path class="st2" d="M-3.2,23.2H7.2v10.9H-3.2V23.2z"/>
<path class="st3" d="M-5.3,27.6h0.9c0.2,0,0.4,0.2,0.4,0.4v4.8c0,0.2-0.2,0.4-0.4,0.4h-6.9c-0.2,0-0.4-0.2-0.4-0.4V28
	c0-0.2,0.2-0.4,0.4-0.4h0.9v-0.4c0-1.3,1.2-2.4,2.6-2.4s2.6,1.1,2.6,2.4V27.6z M-6.2,27.6v-0.4c0-0.9-0.8-1.6-1.7-1.6
	s-1.7,0.7-1.7,1.6v0.4H-6.2z M-8.4,30v0.8h0.9V30H-8.4z M-10.1,30v0.8h0.9V30H-10.1z M-6.6,30v0.8h0.9V30H-6.6z"/>
</svg>
